<svg width="224" height="80" viewBox="0 0 224 80" fill="none" xmlns="http://www.w3.org/2000/svg">
<g clip-path="url(#clip0)">
<path d="M0 6.41882H14.336V10.9589H5.06435V16.6732H13.7906V20.822H5.06435V29.7456H0V6.41882Z" fill="#1D1D1B"/>
<path d="M19.9458 18.9432V6.41879H25.0101V18.865C25.0101 23.4834 26.4125 25.4403 29.7628 25.4403C33.0351 25.4403 34.5155 23.4834 34.5155 18.865V6.41879H39.5798V18.865C39.5798 26.3796 36.3075 29.9022 29.7628 29.9022C23.2181 29.9804 19.9458 26.4579 19.9458 18.9432ZM24.4647 2.19178C24.4647 0.939335 25.3997 0 26.6463 0C27.8929 0 28.8278 0.939335 28.8278 2.19178C28.8278 3.36595 27.8929 4.38356 26.7242 4.38356C25.4776 4.38356 24.4647 3.36595 24.4647 2.19178ZM30.6978 2.19178C30.6978 0.939335 31.7106 0 32.8793 0C34.1259 0 35.0609 0.939335 35.0609 2.19178C35.0609 3.36595 34.1259 4.38356 32.9572 4.38356C31.7106 4.38356 30.6978 3.36595 30.6978 2.19178Z" fill="#1D1D1B"/>
<path d="M50.7214 10.9589H45.0337V6.41882H61.3176V10.9589H55.7078V29.6674H50.6435V10.9589H50.7214Z" fill="#1D1D1B"/>
<path d="M72.5371 10.9589H66.8494V6.41882H83.1332V10.9589H77.5235V29.6674H72.4591V10.9589H72.5371Z" fill="#1D1D1B"/>
<path d="M88.7429 6.41882H104.014V10.9589H93.7294V15.9687H103.391V19.8826H93.7294V25.1272H104.014V29.6674H88.7429V6.41882Z" fill="#1D1D1B"/>
<path d="M123.726 29.6674L119.674 22.231C119.285 22.231 118.817 22.231 118.428 22.231H116.012V29.6674H110.948V6.41882H118.428C125.907 6.41882 128.868 8.92372 128.868 14.2466C128.868 17.6126 127.388 20.0392 124.349 21.2916L129.491 29.6674H123.726ZM118.662 18.4736C122.246 18.4736 123.804 17.5343 123.804 14.638C123.804 11.7417 122.246 10.7241 118.662 10.7241H116.012V18.4736H118.662Z" fill="#1D1D1B"/>
<path d="M135.413 6.41882H150.684V10.9589H140.399V15.9687H150.061V19.8826H140.399V25.1272H150.684V29.6674H135.413V6.41882Z" fill="#1D1D1B"/>
<path d="M169.695 29.6674L165.643 22.231C165.254 22.231 164.786 22.231 164.397 22.231H161.981V29.6674H156.917V6.41882H164.397C171.876 6.41882 174.837 8.92372 174.837 14.2466C174.837 17.6126 173.357 20.0392 170.318 21.2916L175.46 29.6674H169.695ZM164.63 18.4736C168.214 18.4736 169.773 17.5343 169.773 14.638C169.773 11.7417 168.136 10.7241 164.63 10.7241H161.981V18.4736H164.63Z" fill="#1D1D1B"/>
<path d="M4.98643 79.9217L3.11652 77.0254C2.88278 77.0254 2.72696 77.0254 2.49322 77.0254H1.48035V79.8434H0.0779114V71.3894H2.57113C5.22017 71.3894 6.46678 72.1722 6.46678 74.2074C6.46678 75.6164 5.76556 76.3992 4.51896 76.7906L6.62261 79.8434H4.98643V79.9217ZM2.64904 75.9295C4.28522 75.9295 5.06435 75.6164 5.06435 74.2857C5.06435 72.955 4.28522 72.5636 2.64904 72.5636H1.40243V75.9295H2.64904Z" fill="#F5EFEF"/>
<path d="M8.57042 71.3894H14.1022V72.6419H9.97285V74.9902H13.9464V76.1644H9.97285V78.6692H14.1022V79.9217H8.57042V71.3894Z" fill="#F5EFEF"/>
<path d="M15.7384 75.6947C15.7384 72.6419 17.6863 71.3112 19.712 71.3112C21.2703 71.3112 22.9064 72.0939 23.4518 74.2074L22.1273 74.4423C21.8157 73.1898 20.8807 72.5636 19.712 72.5636C18.1537 72.5636 17.1409 73.7378 17.1409 75.6947C17.1409 77.6517 18.1537 78.8258 19.712 78.8258C20.8807 78.8258 21.8157 78.1996 22.1273 76.8689L23.4518 77.1037C22.9844 79.2955 21.2703 80.0783 19.712 80.0783C17.7642 80 15.7384 78.7476 15.7384 75.6947Z" fill="#F5EFEF"/>
<path d="M25.5555 71.3894H26.88V74.9902H30.9315V71.3894H32.256V79.9217H30.9315V76.1644H26.88V79.9217H25.5555V71.3894Z" fill="#F5EFEF"/>
<path d="M36.3854 72.6419H34.1259V71.3894H40.0473V72.6419H37.7878V79.9217H36.4633V72.6419H36.3854Z" fill="#F5EFEF"/>
<path d="M41.216 77.7299L42.4626 77.4951C42.7743 78.3562 43.6313 78.9041 44.7221 78.9041C45.8908 78.9041 46.592 78.4344 46.592 77.6517C46.592 75.6164 41.6056 77.0254 41.6056 73.7378C41.6056 72.3288 42.7743 71.3112 44.5663 71.3112C46.2804 71.3112 47.449 72.0939 47.8386 73.5029L46.592 73.7378C46.2024 72.955 45.5791 72.4853 44.5663 72.4853C43.4755 72.4853 42.9301 72.955 42.9301 73.6595C42.9301 75.773 47.9165 74.2074 47.9165 77.5734C47.9165 79.0607 46.6699 80.0783 44.8 80.0783C43.008 80 41.6835 79.139 41.216 77.7299Z" fill="#F5EFEF"/>
<path d="M55.1624 78.1996H50.9551L50.3318 79.8435H48.9294L52.4355 71.3112H53.76L57.2661 79.8435H55.8636L55.1624 78.1996ZM54.7729 77.1037L53.0588 72.8767L51.4226 77.1037H54.7729Z" fill="#F5EFEF"/>
<path d="M58.9023 71.3894H60.3047L64.6678 77.8082V71.3894H65.9923V79.9217H64.6678L60.3047 73.5029V79.9217H58.9802V71.3894H58.9023Z" fill="#F5EFEF"/>
<path d="M67.5506 71.3894H69.031L71.1346 77.9648L73.0825 71.3894H74.2511L76.199 77.9648L78.3026 71.3894H79.783L76.9002 79.8434H75.5757L73.6278 73.2681L71.68 79.8434H70.4334L67.5506 71.3894Z" fill="#F5EFEF"/>
<path d="M85.8602 78.1996H81.6529L81.0296 79.8434H79.6272L83.1332 71.3111H84.4578L87.9638 79.8434H86.5614L85.8602 78.1996ZM82.1204 69.9021C82.1204 69.5107 82.432 69.2759 82.7437 69.2759C83.0553 69.2759 83.367 69.589 83.367 69.9021C83.367 70.2152 83.0553 70.5283 82.7437 70.5283C82.3541 70.5283 82.1204 70.2935 82.1204 69.9021ZM85.4706 77.1037L83.7565 72.8767L82.0425 77.1037H85.4706ZM84.224 69.9021C84.224 69.5107 84.5357 69.2759 84.8473 69.2759C85.159 69.2759 85.4706 69.589 85.4706 69.9021C85.4706 70.2152 85.159 70.5283 84.8473 70.5283C84.4578 70.5283 84.224 70.2935 84.224 69.9021Z" fill="#F5EFEF"/>
<path d="M89.6 71.3894H90.9245V78.6692H94.5085V79.9217H89.6V71.3894Z" fill="#F5EFEF"/>
<path d="M97.1576 72.6419H94.8981V71.3894H100.819V72.6419H98.56V79.9217H97.2355V72.6419H97.1576Z" fill="#F5EFEF"/>
<path d="M102.611 71.3894H108.143V72.6419H104.014V74.9902H107.988V76.1644H104.014V78.6692H108.143V79.9217H102.611V71.3894Z" fill="#F5EFEF"/>
<path d="M113.675 71.3894H115.935C118.739 71.3894 119.908 72.1722 119.908 74.364C119.908 76.634 118.739 77.3385 115.935 77.3385H115V79.8434H113.675V71.3894ZM116.168 76.1644C117.805 76.1644 118.584 75.773 118.584 74.364C118.584 72.955 117.805 72.6419 116.168 72.6419H115V76.1644H116.168Z" fill="#F5EFEF"/>
<path d="M126.998 78.1996H122.791L122.168 79.8435H120.765L124.271 71.3112H125.596L129.102 79.8435H127.699L126.998 78.1996ZM126.531 77.1037L124.817 72.8767L123.103 77.1037H126.531Z" fill="#F5EFEF"/>
<path d="M135.88 79.9217L134.01 77.0254C133.777 77.0254 133.621 77.0254 133.387 77.0254H132.296V79.8434H130.894V71.3894H133.387C136.036 71.3894 137.283 72.1722 137.283 74.2074C137.283 75.6164 136.582 76.3992 135.335 76.7906L137.439 79.8434H135.88V79.9217ZM133.543 75.9295C135.179 75.9295 135.958 75.6164 135.958 74.2857C135.958 72.955 135.179 72.5636 133.543 72.5636H132.296V75.9295H133.543Z" fill="#F5EFEF"/>
<path d="M141.646 72.6419H139.386V71.3894H145.308V72.6419H143.048V79.9217H141.724V72.6419H141.646Z" fill="#F5EFEF"/>
<path d="M147.411 71.3894H148.814L153.177 77.8082V71.3894H154.502V79.9217H153.177L148.814 73.5029V79.9217H147.489V71.3894H147.411Z" fill="#F5EFEF"/>
<path d="M157.229 71.3894H162.76V72.6419H158.631V74.9902H162.605V76.1644H158.631V78.6692H162.76V79.9217H157.229V71.3894Z" fill="#F5EFEF"/>
<path d="M170.084 79.9217L168.214 77.0254C167.981 77.0254 167.825 77.0254 167.591 77.0254H166.5V79.8434H165.176V71.3894H167.669C170.318 71.3894 171.565 72.1722 171.565 74.2074C171.565 75.6164 170.863 76.3992 169.617 76.7906L171.72 79.8434H170.084V79.9217ZM167.747 75.9295C169.383 75.9295 170.162 75.6164 170.162 74.2857C170.162 72.955 169.383 72.5636 167.747 72.5636H166.5V75.9295H167.747Z" fill="#F5EFEF"/>
<path d="M173.512 77.7299L174.759 77.4951C175.071 78.3562 175.928 78.9041 177.018 78.9041C178.187 78.9041 178.888 78.4344 178.888 77.6517C178.888 75.6164 173.902 77.0254 173.902 73.7378C173.902 72.3288 175.071 71.3112 176.863 71.3112C178.577 71.3112 179.745 72.0939 180.135 73.5029L178.888 73.7378C178.499 72.955 177.875 72.4853 176.863 72.4853C175.772 72.4853 175.226 72.955 175.226 73.6595C175.226 75.773 180.213 74.2074 180.213 77.5734C180.213 79.0607 178.966 80.0783 177.096 80.0783C175.226 80 173.98 79.139 173.512 77.7299Z" fill="#F5EFEF"/>
<path d="M182.083 75.6947C182.083 72.6419 184.031 71.3112 186.056 71.3112C187.615 71.3112 189.251 72.0939 189.796 74.2074L188.472 74.4423C188.16 73.1898 187.225 72.5636 186.056 72.5636C184.498 72.5636 183.485 73.7378 183.485 75.6947C183.485 77.6517 184.498 78.8258 186.056 78.8258C187.225 78.8258 188.16 78.1996 188.472 76.8689L189.796 77.1037C189.329 79.2955 187.615 80.0783 186.056 80.0783C184.031 80 182.083 78.7476 182.083 75.6947Z" fill="#F5EFEF"/>
<path d="M192.134 71.3894H193.458V74.9902H197.51V71.3894H198.834V79.9217H197.51V76.1644H193.458V79.9217H192.134V71.3894Z" fill="#F5EFEF"/>
<path d="M207.093 78.1996H202.886L202.262 79.8435H200.86L204.366 71.3112H205.69L209.197 79.8435H207.794L207.093 78.1996ZM206.625 77.1037L204.911 72.8767L203.197 77.1037H206.625Z" fill="#F5EFEF"/>
<path d="M211.066 71.3894H216.209V72.6419H212.391V75.1467H215.975V76.3209H212.391V79.9217H211.066V71.3894Z" fill="#F5EFEF"/>
<path d="M220.338 72.6419H218.079V71.3894H224V72.6419H221.741V79.9217H220.416V72.6419H220.338Z" fill="#F5EFEF"/>
<path d="M152.476 55.4207H71.7579V0L99.7287 10.7241L99.1054 0L127.777 10.7241V0.313112H157.073V49.1585H155.748V1.64384H129.102V12.681L100.508 1.95695L101.131 12.681L73.0824 1.95695V54.09H152.476V55.4207Z" fill="#F5EFEF"/>
<path d="M0 38.7476H15.271V43.2877H5.06435V48.2975H14.7256V52.2114H5.06435V57.456H15.3489V61.9961H0V38.7476Z" fill="#1D1D1B"/>
<path d="M21.3482 38.7476H26.3346L36.2296 54.0117V38.7476H41.2939V61.9961H36.3854L26.4125 46.6536V61.9961H21.3482V38.7476Z" fill="#1D1D1B"/>
<path d="M46.2803 50.3327C46.2803 43.2094 50.7214 38.4344 57.2661 38.4344C62.4083 38.4344 65.7586 40.3914 67.161 44.6967L62.1746 45.636C61.3176 43.6791 59.6814 42.818 57.344 42.818C53.76 42.818 51.3447 45.7926 51.3447 50.4892C51.3447 55.1859 53.6821 58.0822 57.4219 58.0822C60.6163 58.0822 62.72 56.2818 62.8758 52.7593H57.344V48.8454H68.0181C68.096 49.5499 68.096 50.1761 68.096 50.8024C68.096 57.9256 63.9666 62.3092 57.1882 62.3092C50.5656 62.2309 46.2803 57.5343 46.2803 50.3327Z" fill="#1D1D1B"/>
<path d="M73.0824 38.7476H88.3534V43.2877H78.0689V48.2975H87.7301V52.2114H78.0689V57.456H88.3534V61.9961H73.0824V38.7476Z" fill="#1D1D1B"/>
<path d="M95.1318 38.7476H100.196V57.456H108.767V61.9961H95.1318V38.7476Z" fill="#1D1D1B"/>
<path d="M117.103 38.7476H123.258L128.634 56.6732L134.01 38.7476H140.166L143.905 61.9961H138.763L136.114 45.4012L131.05 61.9961H126.141L120.999 45.4012L118.428 61.9961H113.363L117.103 38.7476Z" fill="#1D1D1B"/>
<path d="M164.708 57.9256H154.813L153.333 61.9961H148.035L157.229 38.7476H162.371L171.565 61.9961H166.266L164.708 57.9256ZM163.384 54.2466L159.722 44.3053L156.138 54.2466H163.384Z" fill="#1D1D1B"/>
<path d="M176.395 38.7476H181.382L191.277 54.0117V38.7476H196.341V61.9961H191.432L181.459 46.6536V61.9961H176.395V38.7476Z" fill="#1D1D1B"/>
<path d="M203.509 38.7476H208.495L218.468 54.0117V38.7476H223.533V61.9961H218.624L208.651 46.6536V61.9961H203.587V38.7476H203.509Z" fill="#1D1D1B"/>
</g>
<defs>
<clipPath id="clip0">
<rect width="224" height="80" fill="white"/>
</clipPath>
</defs>
</svg>
