<svg width="370" height="132" viewBox="0 0 370 132" fill="none" xmlns="http://www.w3.org/2000/svg">
<g clip-path="url(#clip0)">
<path d="M0 10.591H23.68V18.0822H8.36522V27.5108H22.7791V34.3562H8.36522V49.0802H0V10.591Z" fill="#1D1D1B"/>
<path d="M32.9461 31.2564V10.591H41.3113V31.1272C41.3113 38.7476 43.6278 41.9765 49.1618 41.9765C54.567 41.9765 57.0122 38.7476 57.0122 31.1272V10.591H65.3774V31.1272C65.3774 43.5264 59.9722 49.3386 49.1618 49.3386C38.3513 49.4677 32.9461 43.6556 32.9461 31.2564ZM40.4105 3.61644C40.4105 1.5499 41.9548 0 44.0139 0C46.0731 0 47.6174 1.5499 47.6174 3.61644C47.6174 5.55382 46.0731 7.23288 44.1426 7.23288C42.0835 7.23288 40.4105 5.55382 40.4105 3.61644ZM50.7061 3.61644C50.7061 1.5499 52.3792 0 54.3096 0C56.3687 0 57.9131 1.5499 57.9131 3.61644C57.9131 5.55382 56.3687 7.23288 54.4383 7.23288C52.3791 7.23288 50.7061 5.55382 50.7061 3.61644Z" fill="#1D1D1B"/>
<path d="M83.7809 18.0822H74.3861V10.591H101.284V18.0822H92.0174V48.9511H83.6522V18.0822H83.7809Z" fill="#1D1D1B"/>
<path d="M119.816 18.0822H110.421V10.591H137.318V18.0822H128.052V48.9511H119.687V18.0822H119.816Z" fill="#1D1D1B"/>
<path d="M146.584 10.591H171.809V18.0822H154.821V26.3483H170.779V32.8063H154.821V41.4599H171.809V48.9511H146.584V10.591Z" fill="#1D1D1B"/>
<path d="M204.369 48.9511L197.676 36.681C197.033 36.681 196.261 36.681 195.617 36.681H191.628V48.9511H183.263V10.591H195.617C207.972 10.591 212.863 14.7241 212.863 23.5069C212.863 29.0607 210.417 33.0646 205.398 35.1311L213.892 48.9511H204.369ZM196.003 30.4814C201.923 30.4814 204.497 28.9315 204.497 24.1527C204.497 19.3738 201.923 17.6947 196.003 17.6947H191.628V30.4814H196.003Z" fill="#1D1D1B"/>
<path d="M223.673 10.591H248.897V18.0822H231.91V26.3483H247.868V32.8063H231.91V41.4599H248.897V48.9511H223.673V10.591Z" fill="#1D1D1B"/>
<path d="M280.299 48.9511L273.607 36.681C272.963 36.681 272.191 36.681 271.548 36.681H267.558V48.9511H259.193V10.591H271.548C283.903 10.591 288.793 14.7241 288.793 23.5069C288.793 29.0607 286.348 33.0646 281.329 35.1311L289.823 48.9511H280.299ZM271.934 30.4814C277.854 30.4814 280.428 28.9315 280.428 24.1527C280.428 19.3738 277.725 17.6947 271.934 17.6947H267.558V30.4814H271.934Z" fill="#1D1D1B"/>
<path d="M8.23655 131.871L5.14785 127.092C4.76177 127.092 4.50438 127.092 4.11829 127.092H2.44525V131.742H0.128723V117.793H4.24698C8.62264 117.793 10.6818 119.084 10.6818 122.442C10.6818 124.767 9.52351 126.059 7.46438 126.705L10.9392 131.742H8.23655V131.871ZM4.37568 125.284C7.07829 125.284 8.36525 124.767 8.36525 122.571C8.36525 120.376 7.07829 119.73 4.37568 119.73H2.31655V125.284H4.37568Z" fill="#ED2E38"/>
<path d="M14.1566 117.793H23.294V119.859H16.4731V123.734H23.0366V125.671H16.4731V129.804H23.294V131.871H14.1566V117.793Z" fill="#ED2E38"/>
<path d="M25.9966 124.896C25.9966 119.859 29.214 117.663 32.5601 117.663C35.134 117.663 37.8366 118.955 38.7375 122.442L36.5496 122.83C36.0348 120.763 34.4905 119.73 32.5601 119.73C29.9861 119.73 28.3131 121.667 28.3131 124.896C28.3131 128.125 29.9861 130.063 32.5601 130.063C34.4905 130.063 36.0348 129.029 36.5496 126.834L38.7375 127.221C37.9653 130.838 35.134 132.129 32.5601 132.129C29.3427 132 25.9966 129.933 25.9966 124.896Z" fill="#ED2E38"/>
<path d="M42.2122 117.793H44.4V123.734H51.0922V117.793H53.28V131.871H51.0922V125.671H44.4V131.871H42.2122V117.793Z" fill="#ED2E38"/>
<path d="M60.1009 119.859H56.3687V117.793H66.1496V119.859H62.4174V131.871H60.2296V119.859H60.1009Z" fill="#ED2E38"/>
<path d="M68.08 128.254L70.1391 127.867C70.6539 129.288 72.0696 130.192 73.8713 130.192C75.8018 130.192 76.96 129.417 76.96 128.125C76.96 124.767 68.7235 127.092 68.7235 121.667C68.7235 119.342 70.6539 117.663 73.6139 117.663C76.4452 117.663 78.3757 118.955 79.0191 121.28L76.96 121.667C76.3165 120.376 75.287 119.601 73.6139 119.601C71.8122 119.601 70.9113 120.376 70.9113 121.538C70.9113 125.025 79.1478 122.442 79.1478 127.996C79.1478 130.45 77.0887 132.129 74 132.129C71.04 132 68.8522 130.579 68.08 128.254Z" fill="#ED2E38"/>
<path d="M91.1166 129.029H84.167L83.1374 131.742H80.8209L86.6122 117.663H88.8001L94.5914 131.742H92.2748L91.1166 129.029ZM90.4731 127.221L87.6418 120.247L84.9392 127.221H90.4731Z" fill="#ED2E38"/>
<path d="M97.2939 117.793H99.6105L106.817 128.384V117.793H109.005V131.871H106.817L99.6105 121.28V131.871H97.4226V117.793H97.2939Z" fill="#ED2E38"/>
<path d="M111.579 117.793H114.024L117.499 128.642L120.717 117.793H122.647L125.864 128.642L129.339 117.793H131.784L127.023 131.742H124.835L121.617 120.892L118.4 131.742H116.341L111.579 117.793Z" fill="#ED2E38"/>
<path d="M141.823 129.029H134.873L133.844 131.742H131.527L137.318 117.663H139.506L145.297 131.742H142.981L141.823 129.029ZM135.645 115.339C135.645 114.693 136.16 114.305 136.675 114.305C137.19 114.305 137.704 114.822 137.704 115.339C137.704 115.855 137.19 116.372 136.675 116.372C136.031 116.372 135.645 115.984 135.645 115.339ZM141.179 127.221L138.348 120.247L135.517 127.221H141.179ZM139.12 115.339C139.12 114.693 139.635 114.305 140.15 114.305C140.664 114.305 141.179 114.822 141.179 115.339C141.179 115.855 140.664 116.372 140.15 116.372C139.506 116.372 139.12 115.984 139.12 115.339Z" fill="#ED2E38"/>
<path d="M148 117.793H150.188V129.804H156.108V131.871H148V117.793Z" fill="#ED2E38"/>
<path d="M160.484 119.859H156.751V117.793H166.532V119.859H162.8V131.871H160.612V119.859H160.484Z" fill="#ED2E38"/>
<path d="M169.492 117.793H178.63V119.859H171.809V123.734H178.372V125.671H171.809V129.804H178.63V131.871H169.492V117.793Z" fill="#ED2E38"/>
<path d="M187.767 117.793H191.499C196.132 117.793 198.063 119.084 198.063 122.701C198.063 126.446 196.132 127.609 191.499 127.609H189.955V131.742H187.767V117.793ZM191.885 125.671C194.588 125.671 195.875 125.025 195.875 122.701C195.875 120.376 194.588 119.859 191.885 119.859H189.955V125.671H191.885Z" fill="#ED2E38"/>
<path d="M209.774 129.029H202.824L201.795 131.742H199.478L205.27 117.663H207.457L213.249 131.742H210.932L209.774 129.029ZM209.002 127.221L206.17 120.247L203.339 127.221H209.002Z" fill="#ED2E38"/>
<path d="M224.445 131.871L221.357 127.092C220.97 127.092 220.713 127.092 220.327 127.092H218.525V131.742H216.209V117.793H220.327C224.703 117.793 226.762 119.084 226.762 122.442C226.762 124.767 225.604 126.059 223.544 126.705L227.019 131.742H224.445V131.871ZM220.584 125.284C223.287 125.284 224.574 124.767 224.574 122.571C224.574 120.376 223.287 119.73 220.584 119.73H218.525V125.284H220.584Z" fill="#ED2E38"/>
<path d="M233.969 119.859H230.237V117.793H240.017V119.859H236.285V131.871H234.097V119.859H233.969Z" fill="#ED2E38"/>
<path d="M243.492 117.793H245.809L253.016 128.384V117.793H255.204V131.871H253.016L245.809 121.28V131.871H243.621V117.793H243.492Z" fill="#ED2E38"/>
<path d="M259.708 117.793H268.845V119.859H262.024V123.734H268.588V125.671H262.024V129.804H268.845V131.871H259.708V117.793Z" fill="#ED2E38"/>
<path d="M280.943 131.871L277.854 127.092C277.468 127.092 277.21 127.092 276.824 127.092H275.023V131.742H272.835V117.793H276.953C281.329 117.793 283.388 119.084 283.388 122.442C283.388 124.767 282.23 126.059 280.17 126.705L283.645 131.742H280.943V131.871ZM277.082 125.284C279.784 125.284 281.071 124.767 281.071 122.571C281.071 120.376 279.784 119.73 277.082 119.73H275.023V125.284H277.082Z" fill="#ED2E38"/>
<path d="M286.605 128.254L288.664 127.867C289.179 129.288 290.595 130.192 292.397 130.192C294.327 130.192 295.485 129.417 295.485 128.125C295.485 124.767 287.249 127.092 287.249 121.667C287.249 119.342 289.179 117.663 292.139 117.663C294.97 117.663 296.901 118.955 297.544 121.28L295.485 121.667C294.842 120.376 293.812 119.601 292.139 119.601C290.337 119.601 289.437 120.376 289.437 121.538C289.437 125.025 297.673 122.442 297.673 127.996C297.673 130.45 295.614 132.129 292.525 132.129C289.437 132 287.377 130.579 286.605 128.254Z" fill="#ED2E38"/>
<path d="M300.762 124.896C300.762 119.859 303.979 117.663 307.325 117.663C309.899 117.663 312.602 118.955 313.503 122.442L311.315 122.83C310.8 120.763 309.256 119.73 307.325 119.73C304.751 119.73 303.078 121.667 303.078 124.896C303.078 128.125 304.751 130.063 307.325 130.063C309.256 130.063 310.8 129.029 311.315 126.834L313.503 127.221C312.73 130.838 309.899 132.129 307.325 132.129C303.979 132 300.762 129.933 300.762 124.896Z" fill="#ED2E38"/>
<path d="M317.363 117.793H319.551V123.734H326.243V117.793H328.431V131.871H326.243V125.671H319.551V131.871H317.363V117.793Z" fill="#ED2E38"/>
<path d="M342.073 129.029H335.123L334.094 131.742H331.777L337.569 117.663H339.757L345.548 131.742H343.231L342.073 129.029ZM341.301 127.221L338.47 120.247L335.638 127.221H341.301Z" fill="#ED2E38"/>
<path d="M348.637 117.793H357.13V119.859H350.824V123.992H356.744V125.93H350.824V131.871H348.637V117.793Z" fill="#ED2E38"/>
<path d="M363.951 119.859H360.219V117.793H370V119.859H366.268V131.871H364.08V119.859H363.951Z" fill="#ED2E38"/>
<path d="M251.857 91.4442H118.529V0L164.73 17.6947L163.701 0L211.061 17.6947V0.516634H259.45V81.1115H257.263V2.71233H213.249V20.9237L166.017 3.22896L167.047 20.9237L120.717 3.22896V89.2485H251.857V91.4442Z" fill="#ED2E38"/>
<path d="M0 63.9335H25.2243V71.4247H8.36522V79.6908H24.3235V86.1487H8.36522V94.8024H25.353V102.294H0V63.9335Z" fill="#1D1D1B"/>
<path d="M35.2626 63.9335H43.4991L59.8434 89.1194V63.9335H68.2087V102.294H60.1008L43.6278 76.9785V102.294H35.2626V63.9335Z" fill="#1D1D1B"/>
<path d="M76.4452 83.0489C76.4452 71.2955 83.7808 63.4168 94.5913 63.4168C103.085 63.4168 108.619 66.6458 110.936 73.7495L102.699 75.2994C101.283 72.0704 98.5808 70.6497 94.72 70.6497C88.8 70.6497 84.8104 75.5577 84.8104 83.3072C84.8104 91.0567 88.6713 95.8356 94.8487 95.8356C100.125 95.8356 103.6 92.865 103.857 87.0528H94.72V80.5949H112.351C112.48 81.7573 112.48 82.7906 112.48 83.8239C112.48 95.5773 105.659 102.81 94.4626 102.81C83.5235 102.681 76.4452 94.9315 76.4452 83.0489Z" fill="#1D1D1B"/>
<path d="M120.717 63.9335H145.941V71.4247H128.953V79.6908H144.911V86.1487H128.953V94.8024H145.941V102.294H120.717V63.9335Z" fill="#1D1D1B"/>
<path d="M157.137 63.9335H165.503V94.8024H179.659V102.294H157.137V63.9335Z" fill="#1D1D1B"/>
<path d="M193.43 63.9335H203.596L212.477 93.5108L221.356 63.9335H231.523L237.701 102.294H229.207L224.831 74.9119L216.466 102.294H208.358L199.864 74.9119L195.617 102.294H187.252L193.43 63.9335Z" fill="#1D1D1B"/>
<path d="M272.063 95.5773H255.718L253.273 102.294H244.522L259.708 63.9335H268.202L283.388 102.294H274.637L272.063 95.5773ZM269.875 89.5069L263.826 73.1037L257.906 89.5069H269.875Z" fill="#1D1D1B"/>
<path d="M291.367 63.9335H299.603L315.948 89.1194V63.9335H324.313V102.294H316.205L299.732 76.9785V102.294H291.367V63.9335Z" fill="#1D1D1B"/>
<path d="M336.153 63.9335H344.39L360.863 89.1194V63.9335H369.228V102.294H361.12L344.647 76.9785V102.294H336.282V63.9335H336.153Z" fill="#1D1D1B"/>
</g>
<defs>
<clipPath id="clip0">
<rect width="370" height="132" fill="white"/>
</clipPath>
</defs>
</svg>
