<svg width="178" height="178" viewBox="0 0 178 178" fill="none" xmlns="http://www.w3.org/2000/svg">
<path d="M7.8102 156.067L4.90408 151.536C4.54082 151.536 4.17755 151.536 3.99592 151.536H2.17959V156.067H0V142.654H3.99592C8.17347 142.654 10.1714 143.923 10.1714 147.004C10.1714 149.179 9.08163 150.448 7.08367 151.173L10.3531 156.067H7.8102ZM3.99592 149.904C6.53877 149.904 7.8102 149.361 7.8102 147.367C7.8102 145.191 6.53877 144.648 3.99592 144.648H2.17959V149.904H3.99592Z" fill="#ED2E38"/>
<path d="M13.9858 142.654H22.7042V144.648H16.1654V148.454H22.3409V150.267H16.1654V154.073H22.7042V156.067H13.9858V142.654Z" fill="#ED2E38"/>
<path d="M25.9736 149.542C25.9736 144.829 29.0614 142.654 32.3308 142.654C34.692 142.654 37.4165 143.923 38.3247 147.185L36.1451 147.548C35.6002 145.554 34.1471 144.648 32.3308 144.648C29.7879 144.648 28.1532 146.46 28.1532 149.542C28.1532 152.623 29.7879 154.436 32.3308 154.436C34.1471 154.436 35.6002 153.348 36.1451 151.354L38.3247 151.717C37.5981 155.161 34.8736 156.43 32.3308 156.43C29.0614 156.249 25.9736 154.255 25.9736 149.542Z" fill="#ED2E38"/>
<path d="M41.957 142.654H44.1366V148.273H50.4938V142.654H52.6734V156.067H50.4938V150.267H44.1366V156.067H41.957V142.654Z" fill="#ED2E38"/>
<path d="M59.7572 144.648H56.1245V142.654H65.5694V144.648H61.9368V156.067H59.7572V144.648Z" fill="#ED2E38"/>
<path d="M67.9307 152.623L69.9286 152.261C70.4735 153.711 71.745 154.436 73.3796 154.436C75.196 154.436 76.2858 153.711 76.2858 152.442C76.2858 149.36 68.4756 151.536 68.4756 146.279C68.4756 144.104 70.2919 142.472 73.198 142.472C75.9225 142.472 77.7388 143.741 78.4654 145.916L76.4674 146.279C75.9225 145.01 74.8327 144.285 73.198 144.285C71.5633 144.285 70.6552 145.01 70.6552 146.098C70.6552 149.36 78.647 147.004 78.647 152.261C78.647 154.617 76.649 156.067 73.7429 156.067C70.8368 156.248 68.6572 154.98 67.9307 152.623Z" fill="#ED2E38"/>
<path d="M90.6348 153.53H83.9144L82.8246 156.067H80.4634L86.094 142.654H88.2736L93.9042 156.067H91.543L90.6348 153.53ZM89.9083 151.717L87.3654 145.01L84.6409 151.717H89.9083Z" fill="#ED2E38"/>
<path d="M96.9917 142.654H99.1713L106.073 152.805V142.654H108.253V156.067H106.073L99.1713 145.917V156.067H96.9917V142.654Z" fill="#ED2E38"/>
<path d="M111.341 142.835H113.702L116.971 153.167L120.059 142.835H121.876L124.963 153.167L128.233 142.835H130.594L126.053 156.248H124.055L120.967 145.916L117.88 156.248H115.882L111.341 142.835Z" fill="#ED2E38"/>
<path d="M140.947 153.53H134.408L133.318 156.067H130.957L136.588 142.654H138.767L144.398 156.067H142.037L140.947 153.53ZM134.953 140.479C134.953 139.935 135.316 139.572 135.861 139.572C136.406 139.572 136.769 139.935 136.769 140.479C136.769 141.022 136.406 141.566 135.861 141.566C135.316 141.566 134.953 141.022 134.953 140.479ZM140.402 151.717L137.677 145.01L134.953 151.717H140.402ZM138.404 140.479C138.404 139.935 138.767 139.572 139.494 139.572C140.039 139.572 140.402 139.935 140.402 140.479C140.402 141.022 140.039 141.566 139.494 141.566C138.767 141.385 138.404 141.022 138.404 140.479Z" fill="#ED2E38"/>
<path d="M147.486 142.654H149.665V154.073H155.296V156.067H147.486V142.654Z" fill="#ED2E38"/>
<path d="M160.018 144.648H156.386V142.654H165.831V144.648H162.198V156.067H160.018V144.648Z" fill="#ED2E38"/>
<path d="M169.282 142.654H178V144.648H171.461V148.454H177.637V150.267H171.461V154.073H178V156.067H169.282V142.654Z" fill="#ED2E38"/>
<path d="M0 164.405H3.63265C7.99184 164.405 9.9898 165.674 9.9898 169.118C9.9898 172.562 8.17347 173.831 3.81429 173.831H2.17959V177.819H0V164.405ZM3.99592 171.837C6.53878 171.837 7.8102 171.293 7.8102 169.118C7.8102 166.943 6.53878 166.399 3.99592 166.399H2.17959V172.018H3.99592V171.837Z" fill="#ED2E38"/>
<path d="M21.4327 175.281H14.7123L13.6225 177.819H11.4429L17.0735 164.405H19.2531L24.8837 177.819H22.5225L21.4327 175.281ZM20.7061 173.468L17.9816 166.762L15.2572 173.468H20.7061Z" fill="#ED2E38"/>
<path d="M35.7819 177.819L32.8758 173.287C32.5125 173.287 32.1492 173.287 31.9676 173.287H30.3329V177.819H28.1533V164.405H32.1492C36.3268 164.405 38.3248 165.674 38.3248 168.756C38.3248 170.931 37.235 172.2 35.237 172.925L38.5064 177.819H35.7819ZM32.1492 171.475C34.6921 171.475 35.9635 170.931 35.9635 168.937C35.9635 166.762 34.6921 166.218 32.1492 166.218H30.1513V171.475H32.1492Z" fill="#ED2E38"/>
<path d="M44.8631 166.399H41.2305V164.405H50.6754V166.399H47.0427V177.819H44.8631V166.399Z" fill="#ED2E38"/>
<path d="M54.3081 164.405H56.4877L63.3897 174.556V164.405H65.5693V177.819H63.3897L56.4877 167.668V177.819H54.3081V164.405Z" fill="#ED2E38"/>
<path d="M70.2915 164.405H79.0099V166.399H72.4711V170.206H78.6466V172.018H72.4711V175.825H79.0099V177.819H70.2915V164.405Z" fill="#ED2E38"/>
<path d="M90.9982 177.819L88.0921 173.287C87.7288 173.287 87.3655 173.287 87.1839 173.287H85.3676V177.819H83.188V164.405H87.1839C91.3614 164.405 93.3594 165.674 93.3594 168.756C93.3594 170.931 92.2696 172.2 90.2717 172.925L93.541 177.819H90.9982ZM87.3655 171.475C89.9084 171.475 91.1798 170.931 91.1798 168.937C91.1798 166.762 89.9084 166.218 87.3655 166.218H85.3676V171.475H87.3655Z" fill="#ED2E38"/>
<path d="M96.4468 174.375L98.4447 174.012C98.9896 175.462 100.261 176.187 101.896 176.187C103.712 176.187 104.802 175.462 104.802 174.194C104.802 171.112 96.9917 173.287 96.9917 168.031C96.9917 165.855 98.808 164.224 101.714 164.224C104.439 164.224 106.255 165.493 106.981 167.668L104.984 168.031C104.439 166.762 103.349 166.037 101.714 166.037C100.079 166.037 99.1713 166.762 99.1713 167.849C99.1713 171.112 107.163 168.756 107.163 174.012C107.163 176.369 105.165 177.819 102.259 177.819C99.1713 178 97.1733 176.731 96.4468 174.375Z" fill="#ED2E38"/>
<path d="M110.251 171.112C110.251 166.399 113.339 164.224 116.608 164.224C118.969 164.224 121.694 165.493 122.602 168.756L120.422 169.118C119.878 167.124 118.424 166.218 116.608 166.218C114.065 166.218 112.431 168.031 112.431 171.112C112.431 174.194 114.065 176.006 116.608 176.006C118.424 176.006 119.878 174.919 120.422 172.925L122.602 173.287C121.875 176.731 119.151 178 116.608 178C113.52 178 110.251 176.006 110.251 171.112Z" fill="#ED2E38"/>
<path d="M126.598 164.405H128.777V170.024H135.134V164.405H137.314V177.819H135.134V172.018H128.777V177.819H126.598V164.405Z" fill="#ED2E38"/>
<path d="M150.574 175.281H143.853L142.764 177.819H140.402L146.033 164.405H148.213L153.843 177.819H151.482L150.574 175.281ZM149.847 173.468L147.123 166.762L144.398 173.468H149.847Z" fill="#ED2E38"/>
<path d="M157.112 164.405H165.286V166.399H159.292V170.387H164.923V172.2H159.292V177.819H157.112V164.405Z" fill="#ED2E38"/>
<path d="M172.188 166.399H168.555V164.405H178V166.399H174.367V177.819H172.188V166.399Z" fill="#ED2E38"/>
<path d="M0 5.80042H33.0571V16.1324H11.6245V29.0021H31.7857V38.4277H11.6245V58.9104H0V5.80042Z" fill="#1D1D1B"/>
<path d="M175.82 2.17515V112.02H2.36122V3.26273L58.849 24.833L61.9367 26.1018L61.7551 22.6578L60.4837 3.26273L118.061 24.833L120.967 25.9206V22.8391V2.17515H175.82ZM178 0H118.788V22.8391L58.1224 0L59.3939 22.8391L0 0V114.196H178V0Z" fill="#ED2E38"/>
<path d="M0 75.5865H35.0551V85.9185H11.6245V97.3381H33.7837V106.401H11.6245V118.365H35.0551V128.697H0V75.5865Z" fill="#1D1D1B"/>
</svg>
